<?xml version="1.0" encoding="UTF-8"?>
<svg id="Calque_2" xmlns="http://www.w3.org/2000/svg" viewBox="0 0 62.54 80.01">
  <defs>
    <style>
      .cls-1 {
        fill: #f50057;
      }
    </style>
  </defs>
  <g id="Calque_1-2" data-name="Calque_1">
    <g>
      <path class="cls-1" d="M37.25,45.89c5.6-8.1,13.1-20.2,13.1-26.81C50.35,8.54,41.81,0,31.26,0S12.17,8.54,12.17,19.08c0,6.61,7.5,18.7,13.1,26.81,2.9,4.19,9.08,4.19,11.97,0h0ZM31.27,11.77c4.04,0,7.33,3.27,7.33,7.31s-3.28,7.33-7.33,7.33-7.31-3.27-7.31-7.33,3.27-7.31,7.31-7.31Z"/>
      <path class="cls-1" d="M18.55,80.01l22.36-4.41,21.63,2.13-12.42-21.64-12.04-1.31-14.38,1.83-11.51-1.37L0,75.68l18.55,4.33Z"/>
    </g>
  </g>
</svg>