<svg xmlns="http://www.w3.org/2000/svg" xmlns:xlink="http://www.w3.org/1999/xlink" version="1.1" x="0px" y="0px" viewBox="0 0 24 24" enable-background="new 0 0 24 24" xml:space="preserve" width="20px" height="20px" style="display: block;">
    <g fill="#F50057">
        <path d="M13.2,6c-0.5,0-0.9,0.2-1.2,0.5C11.7,6.2,11.3,6,10.8,6C9.8,6,9,6.8,9,7.8c0,2.4,3,4.2,3,4.2s3-1.5,3-4.2   C15,6.8,14.2,6,13.2,6z"/>
        <path d="M12,2C8.1,2,5,5.1,5,9c0,7,7,13,7,13s7-6,7-13C19,5.1,15.9,2,12,2z M12,14c-2.8,0-5-2.2-5-5s2.2-5,5-5s5,2.2,5,5   S14.8,14,12,14z"/>
    </g>
</svg>